<svg width="606" height="381" viewBox="0 0 606 381" fill="none" xmlns="http://www.w3.org/2000/svg">
<g clip-path="url(#clip0)">
<path opacity="0.1" d="M602.204 262.453C596.124 277.092 583.402 290.314 569.746 302.836C557.742 313.846 544.901 324.485 531.224 334.754C527.433 337.604 523.582 340.419 519.671 343.198L516.954 345.117C514.544 346.824 512.094 348.514 509.603 350.189L509.304 350.392C506.887 352.038 504.449 353.668 501.99 355.282C493.945 360.573 485.441 365.827 476.039 370.177C472.836 371.663 469.532 373.047 466.11 374.287C464.259 374.961 462.369 375.591 460.44 376.179C457.28 377.141 454.034 377.98 450.644 378.67C450.078 378.787 449.507 378.9 448.936 379.006C445.466 379.659 441.953 380.134 438.403 380.46C425.393 381.652 411.956 380.781 398.925 378.739C392.412 377.718 386 376.404 379.797 374.907C379.034 374.726 378.275 374.538 377.512 374.373C356.388 369.082 336.555 361.899 315.281 356.848C307.95 355.106 300.476 353.627 292.859 352.412C289.144 351.821 285.407 351.286 281.649 350.809C272.803 349.708 263.845 348.97 254.849 348.596C242.72 348.062 230.196 348.292 218.654 350.413C217.117 350.695 215.599 351.012 214.101 351.365C212.2 351.81 210.335 352.318 208.506 352.888C203.574 354.483 198.775 356.461 194.151 358.804C193.238 359.253 192.336 359.707 191.433 360.167C188.604 361.61 185.812 363.085 182.977 364.517C177.875 367.191 172.566 369.446 167.1 371.262C164.107 372.209 161.063 372.987 157.982 373.593C149.83 375.228 141.155 375.875 132.443 375.917C128.241 375.917 124.035 375.826 119.876 375.607H119.748C118.328 375.533 116.902 375.447 115.477 375.34C108.986 374.897 102.515 374.212 96.1411 373.277C74.3013 370.07 53.5879 364.01 36.9264 354.764C14.2965 342.215 -0.0747303 323.504 2.08202 304.809C3.63019 291.34 13.2448 278.834 22.3683 266.59C39.3394 243.79 55.2375 220.472 63.6029 195.893C70.3881 175.942 72.4114 154.847 88.0265 136.916C93.0287 131.176 99.4242 125.938 106.871 121.347C112.438 117.935 118.273 114.983 124.318 112.518C131.15 109.717 138.178 107.421 145.346 105.65C151.558 104.108 157.854 102.923 164.202 102.102C167.65 101.653 171.142 101.305 174.654 101.07C177.359 100.881 180.077 100.762 182.806 100.712H183.228C184.897 100.68 186.566 100.68 188.236 100.712C200.407 100.901 212.544 102.043 224.537 104.127C232.043 105.383 239.485 106.922 246.772 108.617C251.121 109.625 255.431 110.681 259.702 111.786C261.005 112.123 262.307 112.465 263.594 112.812C293.981 120.962 320.716 132.218 349.992 141.453C350.142 141.501 350.286 141.55 350.435 141.587C356.444 143.437 362.545 144.971 368.714 146.183C373.247 147.092 377.88 147.877 382.594 148.567C389.812 149.636 397.184 150.48 404.61 151.207L406.249 151.367C417.145 152.436 428.137 153.233 438.814 154.163C442.604 154.494 446.363 154.836 450.068 155.232C452.417 155.467 454.744 155.716 457.05 155.98C458.705 156.172 460.366 156.365 462.026 156.568C463.686 156.771 465.443 156.985 467.151 157.204C468.261 157.343 469.366 157.487 470.477 157.642C477.203 158.534 483.914 159.534 490.549 160.678C494.585 161.372 498.6 162.121 502.566 162.928C505.439 163.512 508.286 164.128 511.108 164.777C513.201 165.251 515.276 165.75 517.333 166.273C534.048 170.479 549.689 175.995 563.169 183.44C598.174 202.728 613.837 234.459 602.204 262.453Z" fill="#2A9D8F"/>
<path opacity="0.1" d="M132.923 48.3145C139.301 48.3145 144.471 43.1388 144.471 36.7543C144.471 30.3697 139.301 25.1941 132.923 25.1941C126.546 25.1941 121.376 30.3697 121.376 36.7543C121.376 43.1388 126.546 48.3145 132.923 48.3145Z" fill="#2A9D8F"/>
<path opacity="0.1" d="M368.944 23.1204C375.321 23.1204 380.491 17.9447 380.491 11.5602C380.491 5.17567 375.321 0 368.944 0C362.566 0 357.397 5.17567 357.397 11.5602C357.397 17.9447 362.566 23.1204 368.944 23.1204Z" fill="#2A9D8F"/>
<path opacity="0.1" d="M508.893 49.0092C515.27 49.0092 520.44 43.8336 520.44 37.449C520.44 31.0645 515.27 25.8889 508.893 25.8889C502.515 25.8889 497.345 31.0645 497.345 37.449C497.345 43.8336 502.515 49.0092 508.893 49.0092Z" fill="#2A9D8F"/>
<path opacity="0.1" d="M19.3521 84.096C30.0399 84.096 38.7041 75.422 38.7041 64.7221C38.7041 54.0222 30.0399 45.3482 19.3521 45.3482C8.66422 45.3482 0 54.0222 0 64.7221C0 75.422 8.66422 84.096 19.3521 84.096Z" fill="#2A9D8F"/>
<path opacity="0.1" d="M37.9034 179.763C48.5912 179.763 57.2554 171.089 57.2554 160.389C57.2554 149.689 48.5912 141.015 37.9034 141.015C27.2155 141.015 18.5513 149.689 18.5513 160.389C18.5513 171.089 27.2155 179.763 37.9034 179.763Z" fill="#2A9D8F"/>
<path opacity="0.1" d="M557.297 144.548C567.985 144.548 576.649 135.874 576.649 125.174C576.649 114.474 567.985 105.8 557.297 105.8C546.609 105.8 537.945 114.474 537.945 125.174C537.945 135.874 546.609 144.548 557.297 144.548Z" fill="#2A9D8F"/>
<path d="M189.17 127.921C189.266 129.548 189.171 131.18 188.887 132.785C187.819 137.75 183.303 141.159 178.931 143.746C174.558 146.333 169.754 148.781 167.154 153.147C164.02 158.422 165.018 165.514 168.697 170.442C172.375 175.37 178.204 178.304 184.205 179.528C195.149 181.788 207.134 178.614 215.339 171.025C223.544 163.435 227.66 151.576 225.648 140.561C221.195 141.186 217.229 137.253 215.788 132.988C214.346 128.723 214.645 124.1 214.085 119.626C214.044 118.87 213.816 118.135 213.423 117.489C212.798 116.623 211.693 116.27 210.663 115.987C205.516 114.57 196.857 111.471 191.524 112.657C186.719 113.758 189.09 123.881 189.17 127.921Z" fill="#BE6F72"/>
<path opacity="0.1" d="M189.17 127.921C189.266 129.548 189.171 131.18 188.887 132.785C187.819 137.75 183.303 141.159 178.931 143.746C174.558 146.333 169.754 148.781 167.154 153.147C164.02 158.422 165.018 165.514 168.697 170.442C172.375 175.37 178.204 178.304 184.205 179.528C195.149 181.788 207.134 178.614 215.339 171.025C223.544 163.435 227.66 151.576 225.648 140.561C221.195 141.186 217.229 137.253 215.788 132.988C214.346 128.723 214.645 124.1 214.085 119.626C214.044 118.87 213.816 118.135 213.423 117.489C212.798 116.623 211.693 116.27 210.663 115.987C205.516 114.57 196.857 111.471 191.524 112.657C186.719 113.758 189.09 123.881 189.17 127.921Z" fill="black"/>
<path d="M182.95 364.528C177.849 367.202 172.539 369.457 167.074 371.273C164.08 372.22 161.036 372.997 157.956 373.603C157.738 369.494 157.961 365.372 158.623 361.311C159.039 358.975 159.653 356.661 159.813 354.293C160.04 350.876 159.31 347.463 157.705 344.438C163.652 343.626 169.3 342.3 175.274 342.69L175.653 342.717C176.363 342.735 177.066 342.867 177.735 343.107C178.654 343.552 179.434 344.24 179.993 345.096C180.3 345.515 180.584 345.953 180.842 346.405C182.529 349.323 183.169 352.69 183.303 356.159C183.366 358.953 183.248 361.749 182.95 364.528V364.528Z" fill="#BE6F72"/>
<path d="M214.079 351.37C212.179 351.815 210.314 352.323 208.484 352.893C203.553 354.488 198.753 356.467 194.129 358.81C193.829 357.354 193.682 355.871 193.691 354.384C196.416 352.503 199.491 351.19 202.733 350.522C205.975 349.855 209.318 349.847 212.563 350.499C212.997 350.551 213.409 350.717 213.759 350.98C213.886 351.092 213.994 351.224 214.079 351.37V351.37Z" fill="#BE6F72"/>
<path d="M223.256 324.391C222.893 327.886 222.359 331.392 221.121 334.679C219.781 338.206 217.603 341.627 217.88 345.395C218.003 347.03 218.558 348.805 218.638 350.424C217.101 350.705 215.583 351.023 214.085 351.375C212.184 351.821 210.319 352.328 208.49 352.899C203.558 354.494 198.759 356.472 194.135 358.815C193.222 359.264 192.32 359.718 191.417 360.178C191.044 360.13 190.675 360.071 190.302 360.001C187.632 359.515 184.824 358.318 183.313 356.18C182.968 355.688 182.696 355.148 182.507 354.577C181.637 351.974 182.545 348.73 180.735 346.667L180.65 346.742L180.585 346.784C179.594 347.683 178.505 348.469 177.34 349.125V349.125C174.686 350.629 171.747 351.557 168.712 351.85C165.677 352.143 162.614 351.793 159.723 350.825C158.577 350.434 157.471 349.937 156.418 349.339C153.973 347.944 151.613 345.598 151.806 342.797C151.912 341.237 152.804 339.74 152.564 338.196C152.388 337.089 151.661 336.17 151.117 335.192C147.545 328.779 151.806 320.532 149.563 313.563C149.51 313.397 149.451 313.232 149.393 313.071C149.227 312.617 149.04 312.179 148.859 311.74C148.4 310.72 147.887 309.715 147.481 308.667C147.144 307.787 146.876 306.881 146.681 305.958C146.177 303.278 145.997 300.546 146.147 297.823C146.147 290.646 147.428 283.297 149.254 276.381C149.579 275.152 149.942 273.415 150.423 271.523C150.891 269.529 151.523 267.577 152.313 265.687C153.38 263.228 154.833 261.267 156.818 260.802C159.808 260.102 164.378 261.582 167.41 261.946L179.395 263.378L203.36 266.248C207.497 266.745 211.842 267.317 215.254 269.647C215.478 269.802 215.697 269.962 215.916 270.133C216.817 270.844 217.624 271.667 218.318 272.581C218.564 272.896 218.798 273.228 219.023 273.565C219.8 274.756 220.462 276.02 220.998 277.338C223.971 284.489 224.041 292.468 224.062 300.212C224.062 308.293 224.089 316.369 223.256 324.391Z" fill="#3F3D56"/>
<path opacity="0.1" d="M177.313 349.157C176.592 346.378 175.071 342.354 174.847 341.258C174.094 337.583 173.549 333.868 173.213 330.131C172.62 323.472 171.553 314.097 173.902 307.764C176.106 308.94 178.044 312.27 179.064 314.541C182.758 322.777 178.6 332.889 182.07 341.221C182.329 341.72 182.49 342.264 182.545 342.824C182.484 343.535 182.23 344.216 181.808 344.791L180.639 346.736L177.313 349.157Z" fill="black"/>
<path d="M254.198 94.8973C258.127 88.4838 263.508 82.1773 263.172 74.6789C263.049 72.0067 262.174 69.3932 261.507 66.7744C259.594 59.1951 259.468 51.2745 261.138 43.638C267.74 42.5762 274.497 44.0913 280.015 47.8708C281.761 49.0787 283.416 50.5805 284.184 52.5633C284.894 54.3912 284.777 56.4274 284.649 58.3835C284.355 62.8782 283.955 67.6723 281.19 71.2103C280.33 72.3167 279.273 73.252 278.435 74.369C277.212 75.9723 276.497 77.9284 275.798 79.8364L266.722 104.555C262.142 117.013 257.177 130.043 247.087 138.664C246.842 138.872 239.613 128.594 239.015 127.563C236.597 123.335 237.654 121.55 240.58 118.012C246.351 111.016 249.484 102.577 254.198 94.8973Z" fill="#BE6F72"/>
<path d="M150.193 305.584C150.162 307.429 150.007 309.27 149.729 311.094C149.633 311.767 149.521 312.435 149.387 313.103C147.567 322.617 143.034 331.665 139.863 340.932C135.683 353.166 133.847 363.78 132.389 375.928C128.188 375.928 123.981 375.837 119.823 375.618H119.695C118.274 375.543 116.849 375.458 115.424 375.351C116.71 364.02 114.356 352.134 116.657 340.793C117.586 336.229 119.171 331.798 120.127 327.256C120.422 325.918 120.644 324.566 120.794 323.204C120.928 321.911 120.997 320.57 121.579 319.404C121.632 319.292 121.693 319.183 121.761 319.078C122.272 318.272 122.906 317.551 123.64 316.941C130.144 311.23 138.1 307.433 146.627 305.968C147.839 305.803 149.019 305.664 150.193 305.584Z" fill="#FBBEBE"/>
<path opacity="0.1" d="M150.193 305.584C150.162 307.429 150.007 309.27 149.729 311.094C149.633 311.767 149.521 312.435 149.387 313.103C147.567 322.617 143.034 331.665 139.863 340.932C135.683 353.166 133.847 363.78 132.389 375.928C128.188 375.928 123.981 375.837 119.823 375.618H119.695C118.274 375.543 116.849 375.458 115.424 375.351C116.71 364.02 114.356 352.134 116.657 340.793C117.586 336.229 119.171 331.798 120.127 327.256C120.422 325.918 120.644 324.566 120.794 323.204C120.928 321.911 120.997 320.57 121.579 319.404C121.632 319.292 121.693 319.183 121.761 319.078C122.272 318.272 122.906 317.551 123.64 316.941C130.144 311.23 138.1 307.433 146.627 305.968C147.839 305.803 149.019 305.664 150.193 305.584Z" fill="black"/>
<path d="M123.127 329.938C123.041 332.908 122.797 335.872 122.396 338.816C120.97 350.846 120.704 363.4 119.727 375.613C118.307 375.538 116.881 375.452 115.456 375.345C108.964 374.902 102.494 374.218 96.1197 373.282C96.6109 370.532 97.1056 367.781 97.6039 365.031C98.2124 361.658 98.821 358.254 98.6449 354.833C98.4794 351.6 97.6145 348.452 96.9259 345.283C95.4578 338.495 94.6356 331.173 92.2173 324.77C90.9561 321.179 88.943 317.899 86.3129 315.15C96.3173 311.217 105.932 310.992 116.678 311.409C117.441 311.367 118.199 311.553 118.856 311.943C119.366 312.385 119.744 312.958 119.951 313.6C121.566 317.489 122.579 321.602 122.956 325.796C123.085 327.173 123.142 328.556 123.127 329.938V329.938Z" fill="#FBBEBE"/>
<path d="M203.712 125.163C215.211 125.163 224.532 115.831 224.532 104.32C224.532 92.808 215.211 83.476 203.712 83.476C192.213 83.476 182.892 92.808 182.892 104.32C182.892 115.831 192.213 125.163 203.712 125.163Z" fill="#BE6F72"/>
<path d="M208.041 153.035C210.711 148.476 213.049 142.784 218.185 141.517C221.083 140.796 224.1 141.779 226.924 142.747C227.742 142.941 228.485 143.372 229.059 143.987C229.476 144.649 229.7 145.416 229.705 146.199C230.599 155.622 230.569 165.109 229.614 174.525C228.936 181.19 227.794 187.822 227.591 194.519C227.308 203.802 228.835 213.086 228.333 222.359C227.954 229.387 226.416 236.292 224.89 243.16L218.483 271.913C218.369 272.803 218.012 273.644 217.453 274.345C216.913 274.841 216.266 275.206 215.563 275.414C206.291 278.695 196.433 279.994 186.628 279.225C176.823 278.456 167.288 275.638 158.639 270.951C156.327 269.679 154.021 268.209 152.516 266.039C150.38 262.961 150.183 258.888 150.877 255.201C151.571 251.513 153.071 248.034 154.08 244.415C155.639 238.804 156.007 232.946 156.359 227.131C156.829 219.478 157.299 211.777 156.482 204.15C155.922 198.896 154.752 193.723 153.872 188.512C152.574 180.658 151.821 172.724 151.619 164.766C151.485 160.015 151.704 154.74 154.987 151.314C156.589 149.646 158.724 148.642 160.897 147.829C164.543 146.483 168.617 145.692 172.3 146.921C175.984 148.15 178.952 152.019 178.082 155.809C177.681 157.567 176.544 159.106 176.267 160.891C175.898 163.254 177.147 165.632 178.936 167.23C188.556 175.931 203.242 161.287 208.041 153.035Z" fill="#E3E8F4"/>
<path d="M208.805 131.737C211.726 130.66 214.901 130.474 217.928 131.203C219.856 131.662 221.938 132.475 223.715 131.614C224.361 131.304 224.895 130.796 225.546 130.508C227.308 129.733 229.593 130.684 231.152 129.556C232.134 128.846 232.454 127.552 232.785 126.376C234.388 120.764 237.674 115.779 242.197 112.096C241.637 116.195 241.231 120.861 243.937 123.993C245.171 125.414 246.9 126.307 248.651 127.002C251.166 128.001 253.926 128.664 256.579 128.119C259.232 127.574 261.715 125.564 262.136 122.886C262.046 126.911 258.218 129.722 257.145 133.608C256.739 135.061 256.777 136.606 256.494 138.092C255.773 141.886 253.066 144.933 250.701 147.99C243.148 157.823 238.323 169.478 236.714 181.778C236.605 183.237 236.3 184.675 235.807 186.053C235.284 187.11 234.692 188.131 234.035 189.11C230.121 195.727 231.328 204.075 232.657 211.632C234.734 223.47 236.805 235.068 240.169 246.607C240.745 248.579 241.396 250.637 242.864 252.074C242.4 256.74 237.697 258.867 233.469 260.882C229.294 262.875 225.443 265.486 222.044 268.626C220.827 269.748 219.626 271.01 219.183 272.608C218.766 274.11 219.065 275.761 218.532 277.22C217.998 278.679 215.862 279.727 214.923 278.497C213.748 274.099 215.756 269.497 215.665 264.944C215.601 261.871 214.597 258.883 214.453 255.81C214.314 252.331 215.339 248.916 216.428 245.613C219.46 236.415 223.123 227.302 224.174 217.677C225.226 208.051 223.261 197.539 216.439 190.671C208.34 182.483 203.845 171.383 195.165 163.863C193.788 162.671 192.229 161.191 192.458 159.384C192.617 158.589 192.967 157.844 193.478 157.214C196.457 153.003 200.418 149.566 203.621 145.537C206.824 141.507 209.387 136.868 208.805 131.737Z" fill="#3F3D56"/>
<path d="M180.303 140.358C179.769 140.892 179.4 141.63 178.781 142.089C178.058 142.536 177.233 142.792 176.384 142.832C173.242 143.31 170.074 143.594 166.898 143.682C164.228 143.682 161.458 143.447 158.89 144.179C155.308 145.195 152.446 148.027 150.652 151.287C148.859 154.547 148.01 158.235 147.321 161.907C145.803 169.996 144.99 178.202 144.892 186.433C149.293 182.92 153.214 178.845 156.557 174.311C159.119 170.832 161.442 166.984 165.098 164.659C166.78 163.59 168.67 162.885 170.362 161.843C173.891 159.667 176.336 156.151 178.685 152.757C180.415 150.24 185.417 145.323 185.812 142.308C186.148 139.428 182.171 138.022 180.303 140.358Z" fill="#3F3D56"/>
<path d="M198.902 90.0498C199.561 90.4462 200.193 90.8873 200.792 91.3699C204.417 93.9032 209.269 93.4329 213.652 92.8556C214.997 92.6846 216.38 92.4922 217.533 91.7867C219.386 90.643 220.256 88.2914 220.074 86.1162C219.893 83.941 218.798 81.9368 217.464 80.2372C215.696 77.9882 213.49 76.1218 210.98 74.7511C208.471 73.3805 205.709 72.5341 202.863 72.2632C201.389 72.0698 199.891 72.2292 198.491 72.7282C196.766 73.439 195.469 74.9034 193.878 75.8815C189.186 78.7675 181.957 77.4848 178.931 82.0918C176.715 85.4909 178.295 90.1086 177.249 94.0154C176.47 96.9335 174.222 99.5897 174.654 102.567C174.895 104.17 175.898 105.57 176.699 107.003C178.538 110.295 179.389 114.05 179.149 117.815C181.205 119.268 184.072 117.008 184.643 114.56C185.214 112.112 184.557 109.504 185.043 107.035C185.903 102.7 189.725 99.5203 191.449 95.5439C192.688 92.6953 194.706 87.8852 198.902 90.0498Z" fill="#3F3D56"/>
<path d="M148.421 137.493C148.261 138.466 148.159 139.54 148.699 140.363C149.766 141.966 152.211 141.389 154.133 141.63C157.128 141.999 159.338 144.836 159.92 147.819C160.502 150.801 159.808 153.837 159.05 156.765C157.335 163.403 155.292 169.947 152.921 176.396C146.547 175.642 139.837 173.189 136.452 167.743C133.377 162.789 133.692 156.477 131.738 150.983C130.366 147.113 127.905 143.746 125.471 140.443C129.384 140.935 132.181 136.456 132.411 132.512C132.64 128.568 131.402 124.565 132.245 120.711C132.443 119.797 147.866 122.678 149.366 123.72C153.701 126.729 149.104 133.314 148.421 137.493Z" fill="#FBBEBE"/>
<path opacity="0.1" d="M148.421 137.493C148.261 138.466 148.159 139.54 148.699 140.363C149.766 141.966 152.211 141.389 154.133 141.63C157.128 141.999 159.338 144.836 159.92 147.819C160.502 150.801 159.808 153.837 159.05 156.765C157.335 163.403 155.292 169.947 152.921 176.396C146.547 175.642 139.837 173.189 136.452 167.743C133.377 162.789 133.692 156.477 131.738 150.983C130.366 147.113 127.905 143.746 125.471 140.443C129.384 140.935 132.181 136.456 132.411 132.512C132.64 128.568 131.402 124.565 132.245 120.711C132.443 119.797 147.866 122.678 149.366 123.72C153.701 126.729 149.104 133.314 148.421 137.493Z" fill="black"/>
<path d="M144.988 131.042C156.487 131.042 165.809 121.71 165.809 110.199C165.809 98.687 156.487 89.355 144.988 89.355C133.49 89.355 124.168 98.687 124.168 110.199C124.168 121.71 133.49 131.042 144.988 131.042Z" fill="#FBBEBE"/>
<path d="M138.577 134.5C139.335 133.314 138.043 131.657 138.636 130.38C138.988 129.61 139.879 129.279 140.568 128.776C141.432 128.072 142.121 127.178 142.581 126.163C145.822 119.927 146.803 112.759 145.357 105.88C144.866 103.571 144.428 100.504 146.537 99.4668C147.121 99.2057 147.762 99.0954 148.4 99.1461C152.201 99.2691 155.874 101.818 159.562 100.915C160.822 100.572 161.946 99.8529 162.786 98.853C163.625 97.853 164.14 96.6202 164.26 95.3195C164.501 91.8669 161.917 88.906 159.376 86.5812C154.801 82.3697 147.828 81.4344 141.614 81.3329L130.057 81.1405C126.357 81.0763 122.209 81.1939 119.636 83.8501C115.931 87.6715 117.794 93.9245 117.26 99.221C116.806 103.448 114.694 107.322 111.388 109.99C108.991 111.904 105.692 113.731 105.734 116.788C105.734 117.857 106.193 118.83 106.487 119.84C107.667 123.838 106.54 128.258 104.277 131.758C102.013 135.259 98.7036 137.953 95.2709 140.31C93.4345 141.566 91.534 142.773 90.0819 144.478C88.4899 146.448 87.5446 148.861 87.3753 151.389C87.1468 153.32 87.5435 155.274 88.507 156.963C90.7652 160.576 96.1838 161.105 99.894 159.01C103.604 156.915 105.868 152.949 107.368 148.962C108.265 146.595 109.178 143.885 111.473 142.822C114.377 141.469 117.773 143.607 119.663 146.199C121.552 148.791 122.716 151.955 125.134 154.061C128.925 157.364 135.374 156.83 138.577 152.949C140.867 150.165 141.374 146.312 141.246 142.704C141.182 139.766 140.254 136.912 138.577 134.5Z" fill="#3F3D56"/>
<path d="M146.051 161.666C143.675 162.174 141.193 161.052 139.426 159.374C137.659 157.695 136.468 155.531 135.23 153.436C132.09 148.151 128.49 143.154 124.473 138.503C120.97 134.457 116.096 130.347 110.897 131.598C109.156 132.101 107.54 132.966 106.156 134.137C101.571 137.771 97.9829 142.51 95.7262 147.911C93.4695 153.312 92.6185 159.198 93.253 165.017C93.6587 168.422 94.5822 171.751 94.9666 175.172C95.2255 177.991 95.3004 180.825 95.1908 183.654C95.0467 192.269 94.7531 201.381 90.1139 208.639C82.923 219.863 79.0739 233.267 73.7941 245.516C70.9433 252.138 69.235 259.188 67.5587 266.2C66.5658 270.361 65.5746 274.521 64.5852 278.679L58.1256 305.883C57.4583 308.689 56.791 311.628 57.4957 314.434C58.5634 318.624 62.4978 321.553 66.6459 322.745C70.7939 323.937 75.1875 323.733 79.4956 323.771C87.7383 323.851 96.045 324.877 103.78 327.742C105.991 328.56 108.195 329.538 110.55 329.73C112.904 329.922 115.248 329.308 117.452 328.453C123.469 326.122 128.626 322.039 134.167 318.742C137.629 316.654 141.274 314.888 145.058 313.467C146.958 312.756 148.998 312.082 150.306 310.527C151.293 309.357 151.736 307.828 152.062 306.332C153.866 297.909 152.654 289.181 152.062 280.587C151.469 271.993 146.339 262.913 150.583 255.42C151.437 253.907 152.457 252.454 152.895 250.775C153.471 248.584 152.985 246.227 153.471 244.015C153.829 242.379 154.688 240.909 155.276 239.344C156.301 236.586 156.439 233.582 156.429 230.637C156.405 224.172 155.725 217.725 154.4 211.397C152.719 203.38 158.281 195.454 161.468 187.881C162.611 185.172 164.228 182.611 164.703 179.709C165.131 177.091 164.581 174.424 164.17 171.8C163.556 167.732 163.306 163.619 163.422 159.507C163.524 155.819 163.913 152.062 163.033 148.476C162.152 144.89 159.637 141.411 156.023 140.673C155.618 140.554 155.191 140.526 154.774 140.592C154.357 140.658 153.959 140.815 153.61 141.053C153.193 141.462 152.899 141.98 152.761 142.549C151.587 146.151 151.816 150.031 151.16 153.772C150.503 157.514 149.734 160.875 146.051 161.666Z" fill="#117367"/>
<path d="M95.6713 184.621C95.8901 183.141 95.2015 181.174 93.7067 181.227C92.3294 181.281 91.7154 183.007 91.7208 184.391C91.7261 185.775 91.913 187.363 90.936 188.335C90.0712 189.196 88.6405 189.169 87.6368 189.869C87.2826 190.122 86.9944 190.457 86.7965 190.845C86.5986 191.233 86.4968 191.662 86.4997 192.098C86.4997 192.841 86.836 193.552 86.8574 194.295C86.8787 195.038 86.3823 195.898 85.6456 195.85C85.2672 196.486 85.1096 197.229 85.1975 197.964C85.2854 198.698 85.6137 199.383 86.1314 199.912C86.5157 200.286 87.0176 200.607 87.1457 201.13C87.1863 201.498 87.1573 201.869 87.0603 202.226C86.836 203.696 87.8504 205.342 89.3291 205.502C88.5017 206.095 88.6671 207.485 89.4252 208.174C90.1833 208.864 91.2723 208.997 92.292 208.997C94.6062 208.985 96.8947 208.51 99.0238 207.602C99.7529 207.362 100.398 206.916 100.882 206.32C101.106 206.012 101.214 205.634 101.186 205.254C101.157 204.874 100.995 204.517 100.727 204.246C101.762 204.417 103.006 204.513 103.684 203.712C104.629 202.589 103.615 200.927 102.617 199.842C103.031 199.781 103.417 199.599 103.729 199.319C104.041 199.039 104.263 198.673 104.369 198.268C104.475 197.863 104.459 197.435 104.324 197.038C104.189 196.642 103.941 196.293 103.61 196.037C103.268 195.786 102.803 195.567 102.755 195.144C102.707 194.722 103.065 194.45 103.215 194.075C103.556 193.236 102.777 192.381 102.024 191.874C100.241 190.687 97.6145 190.708 96.0289 189.511C94.4434 188.314 95.4417 186.224 95.6713 184.621Z" fill="#BE6F72"/>
<path d="M205.805 103.523C204.512 103.654 203.21 103.684 201.913 103.614C201.692 103.59 201.47 103.654 201.295 103.792C201.12 103.93 201.007 104.131 200.979 104.352L198.496 122.993C198.305 124.347 197.752 125.623 196.895 126.686C196.188 127.533 195.663 128.516 195.351 129.574C195.04 130.632 194.949 131.743 195.085 132.838V164.504C195.085 164.504 194.925 168.726 198.165 168.726C202.043 169.214 205.968 169.214 209.846 168.726C209.846 168.726 212.44 168.235 212.44 164.339V133.159C212.638 132.071 212.598 130.953 212.321 129.882C212.044 128.812 211.539 127.814 210.839 126.959C210.01 125.891 209.475 124.626 209.285 123.287L206.707 104.256C206.677 104.042 206.568 103.847 206.4 103.711C206.233 103.575 206.02 103.508 205.805 103.523V103.523Z" fill="#3F3D56"/>
<path opacity="0.1" d="M205.805 103.523C204.512 103.654 203.21 103.684 201.913 103.614C201.692 103.59 201.47 103.654 201.295 103.792C201.12 103.93 201.007 104.131 200.979 104.352L198.496 122.993C198.305 124.347 197.752 125.623 196.895 126.686C196.188 127.533 195.663 128.516 195.351 129.574C195.04 130.632 194.949 131.743 195.085 132.838V164.504C195.085 164.504 194.925 168.726 198.165 168.726C202.043 169.214 205.968 169.214 209.846 168.726C209.846 168.726 212.44 168.235 212.44 164.339V133.159C212.638 132.071 212.598 130.953 212.321 129.882C212.044 128.812 211.539 127.814 210.839 126.959C210.01 125.891 209.475 124.626 209.285 123.287L206.707 104.256C206.677 104.042 206.568 103.847 206.4 103.711C206.233 103.575 206.02 103.508 205.805 103.523V103.523Z" fill="black"/>
<path d="M205.821 133.405H201.886C198.628 133.405 195.987 136.049 195.987 139.31V154.131C195.987 157.392 198.628 160.036 201.886 160.036H205.821C209.079 160.036 211.72 157.392 211.72 154.131V139.31C211.72 136.049 209.079 133.405 205.821 133.405Z" fill="#2A9D8F"/>
<path d="M258.693 22.9707C257.552 23.5985 256.363 24.1347 255.138 24.5741C254.925 24.6375 254.746 24.7812 254.637 24.9747C254.529 25.1681 254.499 25.3963 254.556 25.6109L259.435 43.7823C259.784 45.1012 259.769 46.4902 259.392 47.8014C259.063 48.8547 258.955 49.9647 259.075 51.0619C259.194 52.159 259.539 53.2197 260.086 54.1774L272.269 83.4012C272.269 83.4012 273.742 87.3561 276.737 86.1055C280.507 85.0584 284.131 83.5393 287.521 81.5841C287.521 81.5841 289.726 80.1304 288.231 76.5388L276.235 47.7639C275.999 46.6836 275.532 45.6673 274.866 44.7852C274.199 43.9031 273.35 43.1762 272.376 42.6546C271.202 41.9895 270.221 41.0299 269.53 39.8701L259.83 23.3021C259.72 23.1104 259.54 22.9689 259.328 22.9071C259.116 22.8453 258.889 22.8681 258.693 22.9707Z" fill="#3F3D56"/>
<path d="M270.212 50.5466L266.581 52.0635C263.574 53.3195 262.154 56.7779 263.408 59.788L269.109 73.4653C270.364 76.4754 273.818 77.8973 276.825 76.6412L280.456 75.1243C283.463 73.8683 284.883 70.4099 283.628 67.3998L277.927 53.7225C276.673 50.7124 273.218 49.2905 270.212 50.5466Z" fill="#2A9D8F"/>
<path d="M108.879 135.051C103.14 137.418 100.871 144.783 102.216 150.844C103.562 156.904 107.614 161.955 111.564 166.76L122.636 180.281C125.695 184.022 129.042 187.961 133.708 189.265C140.531 191.173 147.353 186.823 153.252 182.889C170.861 171.143 189.683 161.33 209.392 153.623C211.319 152.875 213.294 152.116 214.88 150.78C218.169 148.011 219.092 142.907 217.261 139.022C215.43 135.136 211.164 132.608 206.867 132.576C202.569 132.544 198.389 134.821 195.806 138.263C194.572 139.903 193.67 141.779 192.48 143.447C189.469 147.637 184.771 150.229 180.174 152.57C169.092 158.231 157.683 163.228 146.008 167.535C143.873 168.315 141.465 169.058 139.452 168.026C138.219 167.39 137.386 166.188 136.639 165.012C133.233 159.645 130.524 153.866 128.578 147.813C127.12 143.27 125.941 138.321 122.439 135.093C117.474 130.518 108.484 131.614 104.763 137.231C104.763 137.231 100.401 143.618 103.07 146.29C105.74 148.962 108.879 135.051 108.879 135.051Z" fill="#FBBEBE"/>
<path d="M408.283 112.935C409.063 115.014 409.084 117.291 408.972 119.509C408.833 122.213 408.155 125.388 405.646 126.419C404.012 127.077 401.995 126.58 400.542 127.574C398.781 128.771 398.866 131.347 399.138 133.453C399.891 139.241 400.74 145.243 403.89 150.138C405.582 152.762 407.872 154.948 410.194 157.038C414.823 161.217 419.9 165.301 425.98 166.696C426.971 166.975 428.013 167.019 429.023 166.824C430.02 166.516 430.924 165.965 431.655 165.22C435.179 161.982 436.994 157.359 439.343 153.169C441.003 150.17 442.984 147.29 443.918 143.987C444.687 141.101 444.636 138.057 443.77 135.199C442.904 132.34 441.258 129.781 439.017 127.809C437.976 126.916 436.823 126.168 435.814 125.243C433.177 122.849 431.639 119.413 431.009 115.907C430.379 112.401 430.475 108.793 430.78 105.218C425.441 104.806 420.14 105.453 414.93 106.495C412.613 106.96 409.351 107.174 407.253 108.28C404.893 109.536 407.637 111.145 408.283 112.935Z" fill="#FBBEBE"/>
<path opacity="0.1" d="M408.283 112.935C409.063 115.014 409.084 117.291 408.972 119.509C408.833 122.213 408.155 125.388 405.646 126.419C404.012 127.077 401.995 126.58 400.542 127.574C398.781 128.771 398.866 131.347 399.138 133.453C399.891 139.241 400.74 145.243 403.89 150.138C405.582 152.762 407.872 154.948 410.194 157.038C414.823 161.217 419.9 165.301 425.98 166.696C426.971 166.975 428.013 167.019 429.023 166.824C430.02 166.516 430.924 165.965 431.655 165.22C435.179 161.982 436.994 157.359 439.343 153.169C441.003 150.17 442.984 147.29 443.918 143.987C444.687 141.101 444.636 138.057 443.77 135.199C442.904 132.34 441.258 129.781 439.017 127.809C437.976 126.916 436.823 126.168 435.814 125.243C433.177 122.849 431.639 119.413 431.009 115.907C430.379 112.401 430.475 108.793 430.78 105.218C425.441 104.806 420.14 105.453 414.93 106.495C412.613 106.96 409.351 107.174 407.253 108.28C404.893 109.536 407.637 111.145 408.283 112.935Z" fill="black"/>
<path d="M378.494 128.664C369.825 125.687 365.682 114.057 356.607 112.753C355.176 112.545 353.708 112.625 352.304 112.294C347.077 111.054 344.83 105.004 343.319 99.8463C338.226 82.653 331.574 65.8284 322.125 50.5859C318.137 44.1724 311.833 38.9027 308.955 31.8801C308.293 30.2767 307.957 28.4489 306.766 27.1822C305.576 25.9156 303.029 25.7338 302.383 27.3479C302.203 27.9196 302.163 28.5263 302.266 29.1169L302.891 35.7709L292.032 34.7928C291.028 34.6213 289.997 34.6946 289.026 35.0066C287.979 35.5314 287.144 36.4015 286.661 37.4704C282.989 44.3809 286.902 53.4345 293.383 57.8063C300.953 62.9103 311.763 63.6853 316.792 71.3012C319.782 75.8334 319.84 81.6642 321.81 86.7255C322.75 89.1466 324.122 91.3699 325.216 93.7161C327.304 98.1895 328.371 103.053 329.989 107.713C332.306 114.378 335.738 120.588 339.16 126.761C341.798 131.529 344.499 136.381 348.556 140.026C351.225 142.421 354.364 144.195 357.503 145.905C365.223 150.128 374.325 154.189 382.504 150.951C382.973 143.65 381.142 135.51 378.494 128.664Z" fill="#FBBEBE"/>
<path d="M404.819 358.735C404.162 365.709 399.934 372.027 398.946 378.739C392.433 377.718 386.022 376.404 379.818 374.907C379.055 374.726 378.297 374.538 377.534 374.373C381.046 364.753 377.987 353.978 378.916 343.733C379.007 342.749 379.135 341.766 379.306 340.793C387.351 338.046 394.617 334.38 403.052 335.449C403.217 337.159 403.388 338.875 403.553 340.585C403.891 344.002 404.226 347.415 404.557 350.825C404.896 353.447 404.983 356.096 404.819 358.735V358.735Z" fill="#FBBEBE"/>
<path d="M460.456 376.179C457.296 377.141 454.05 377.98 450.66 378.67C450.094 378.787 449.523 378.9 448.952 379.007C445.482 379.659 441.969 380.134 438.419 380.46C438.056 373.031 433.081 366.201 432.355 358.574C432.206 356.679 432.226 354.774 432.413 352.883C432.477 352.134 432.552 351.386 432.621 350.638L434.127 335.262C435.325 335.111 436.534 335.052 437.741 335.085C444.681 335.251 450.997 338.26 457.873 340.606C458.385 343.85 458.564 347.138 458.406 350.419C458.145 358.767 456.805 367.216 459.901 374.875C460.077 375.308 460.27 375.741 460.456 376.179Z" fill="#FBBEBE"/>
<path d="M370.343 258.953C371.277 266.243 367.556 273.222 365.944 280.389C364.876 285.13 364.732 290.01 364.588 294.873L363.744 324.006C363.659 326.919 363.584 329.885 364.47 332.68C366.253 338.281 371.747 342.065 377.464 343.412C383.182 344.759 389.161 344.075 394.985 343.305C397.841 342.926 400.82 342.482 403.185 340.831C406.436 338.559 407.856 334.513 409.084 330.74L412.549 320.089C416.537 329.078 414.85 338.907 417.241 348.447C417.395 349.329 417.761 350.16 418.309 350.868C419.318 351.99 420.978 352.166 422.489 352.273C432.952 353.011 443.56 353.743 453.853 351.739C456.682 351.204 459.634 350.339 461.588 348.211C463.862 345.737 464.257 342.097 464.231 338.736C464.087 327.186 459.917 316.043 458.988 304.531C458.588 299.598 458.785 294.638 458.609 289.689C458.471 285.967 458.123 282.255 457.568 278.572C457.392 276.885 456.93 275.24 456.202 273.709C454.6 270.716 451.274 269.091 448.125 267.83C423.653 257.878 396.736 257.975 370.343 258.953Z" fill="#117367"/>
<path d="M415.65 115.543C428.328 115.543 438.606 105.254 438.606 92.5617C438.606 79.8694 428.328 69.5803 415.65 69.5803C402.972 69.5803 392.695 79.8694 392.695 92.5617C392.695 105.254 402.972 115.543 415.65 115.543Z" fill="#FBBEBE"/>
<path d="M435.659 133.041C433.956 136.782 431.276 140.523 427.288 141.475C423.621 142.357 419.734 140.588 417.033 137.953C414.332 135.318 412.565 131.897 410.691 128.621C409.324 126.227 407.803 123.811 405.491 122.304C402.331 120.252 398.252 120.305 394.526 120.909C390.8 121.513 387.1 122.593 383.315 122.347C378.601 122.031 373.797 119.674 369.35 121.246C370.791 127.702 370.273 134.799 370.108 141.416C370.136 142.438 369.991 143.457 369.681 144.43C369.292 145.338 368.769 146.181 368.127 146.931L363.856 152.442C368.437 155.873 372.398 160.352 373.999 165.851C374.902 168.983 374.624 172.307 374.592 175.567C374.491 185.139 376.567 194.674 375.911 204.225C375.142 215.411 370.679 225.982 368.378 236.955C366.407 246.374 366.035 256.058 367.278 265.601C391.205 273.891 415.859 278.134 441.152 279.524C445.621 279.769 450.447 279.807 454.114 277.236C457.163 275.098 458.871 271.437 459.453 267.75C460.035 264.062 459.634 260.31 459.229 256.601C458.129 246.571 457.031 236.541 455.935 226.511C455.31 220.803 454.685 215.063 455.091 209.339C455.396 205.064 456.271 200.868 457.141 196.684L462.48 170.998C463.243 167.348 464.012 163.671 465.523 160.266C466.761 157.487 468.475 154.922 469.841 152.217C471.471 148.975 472.594 145.501 473.173 141.918C473.405 140.878 473.39 139.798 473.13 138.765C472.559 137.012 470.813 135.959 469.185 135.099C459.256 129.875 448.615 126.138 437.602 124.009C436.855 127.157 436.999 130.107 435.659 133.041Z" fill="#E3E8F4"/>
<path d="M433.444 117.649C436.113 112.529 441.104 108.937 444.003 103.935C445.605 101.099 446.501 97.9179 446.614 94.6617C446.728 91.4055 446.055 88.1699 444.654 85.229C443.635 83.1447 442.252 81.2313 441.451 79.0508C440.56 76.5709 440.474 73.8399 439.444 71.4134C438.029 68.0892 434.965 65.6948 431.629 64.3159C428.292 62.937 424.688 62.44 421.096 61.959L408.967 60.3236C407.21 60.0884 405.39 59.8533 403.681 60.3236C401.973 60.7939 400.382 62.1888 400.243 63.9632C400.078 66.0636 401.92 68.0197 401.493 70.0827C401.338 70.8095 400.911 71.5471 401.156 72.2525C401.375 72.7238 401.753 73.1024 402.224 73.3214C405.102 74.9248 408.54 75.0691 411.657 76.1166C414.775 77.1641 417.903 79.7937 417.588 83.0645C417.417 84.8228 416.286 86.6507 417.054 88.2273C417.791 89.6864 419.724 89.9536 421.267 90.4079C426.258 91.8562 429.76 97.2756 429.034 102.433C428.81 104.036 428.233 105.57 428.116 107.179C427.726 112.812 428.612 114.421 433.209 117.697L433.444 117.649Z" fill="#3F3D56"/>
<path d="M464.626 142.009C464.65 143.076 464.456 144.136 464.055 145.125C462.389 148.679 457.291 148.455 453.911 150.47C449.705 152.981 448.776 158.588 448.391 163.473C447.954 169.004 447.655 174.616 448.786 180.041C449.918 185.465 452.641 190.757 457.189 193.937C462.725 197.79 470.253 197.924 476.573 195.577C482.894 193.231 488.174 188.694 492.754 183.734C497.1 179.031 500.992 173.788 503.325 167.818C503.736 166.749 504.099 165.616 503.768 164.547C503.271 162.944 501.526 162.217 500.106 161.34C496.79 159.336 494.58 155.841 493.432 152.148C492.285 148.455 492.092 144.526 492.055 140.652C492.012 136.627 492.002 132.229 489.439 129.124C486.877 126.018 482.435 125.147 478.388 125.179C475.079 125.179 465.918 125.495 463.66 128.386C461.807 130.791 464.759 138.567 464.626 142.009Z" fill="#BE6F72"/>
<path opacity="0.1" d="M464.626 142.009C464.65 143.076 464.456 144.136 464.055 145.125C462.389 148.679 457.291 148.455 453.911 150.47C449.705 152.981 448.776 158.588 448.391 163.473C447.954 169.004 447.655 174.616 448.786 180.041C449.918 185.465 452.641 190.757 457.189 193.937C462.725 197.79 470.253 197.924 476.573 195.577C482.894 193.231 488.174 188.694 492.754 183.734C497.1 179.031 500.992 173.788 503.325 167.818C503.736 166.749 504.099 165.616 503.768 164.547C503.271 162.944 501.526 162.217 500.106 161.34C496.79 159.336 494.58 155.841 493.432 152.148C492.285 148.455 492.092 144.526 492.055 140.652C492.012 136.627 492.002 132.229 489.439 129.124C486.877 126.018 482.435 125.147 478.388 125.179C475.079 125.179 465.918 125.495 463.66 128.386C461.807 130.791 464.759 138.567 464.626 142.009Z" fill="black"/>
<path d="M436.161 285.339C436.326 286.153 436.71 286.907 437.271 287.519C437.799 287.936 438.414 288.226 439.07 288.369C456.591 293.516 475.308 291.463 493.448 289.363C490.966 281.795 488.468 274.142 487.779 266.205C487.208 259.658 487.848 252.844 485.531 246.703C484.848 244.886 445.023 253.25 441.094 253.929C439.081 254.276 436.764 254.159 435.339 255.757C433.62 257.691 433.476 262.298 433.294 264.709C432.782 271.673 434.218 278.685 436.161 285.339Z" fill="#BE6F72"/>
<path d="M476.056 370.177C472.852 371.663 469.548 373.047 466.126 374.287C464.275 374.961 462.385 375.591 460.456 376.179C457.296 377.141 454.05 377.98 450.66 378.67C448.728 373.764 446.793 368.855 444.857 363.946C443.432 360.333 442.007 356.704 440.816 353.011C439.988 350.489 439.307 347.921 438.777 345.32C437.029 336.479 437.484 327.343 440.101 318.72C447.5 320.115 454.734 321.024 462.021 322.082C465.912 322.617 469.815 323.247 473.765 323.99C474.075 326.566 474.356 329.142 474.609 331.718C474.993 335.695 475.308 339.671 475.554 343.647C476.098 352.483 476.265 361.327 476.056 370.177Z" fill="#BE6F72"/>
<path opacity="0.1" d="M476.056 370.177C472.852 371.663 469.548 373.047 466.126 374.287C464.275 374.961 462.385 375.591 460.456 376.179C457.296 377.141 454.05 377.98 450.66 378.67C448.728 373.764 446.793 368.855 444.857 363.946C443.432 360.333 442.007 356.704 440.816 353.011C439.988 350.489 439.307 347.921 438.777 345.32C437.029 336.479 437.484 327.343 440.101 318.72C447.5 320.115 454.734 321.024 462.021 322.082C465.912 322.617 469.815 323.247 473.765 323.99C474.075 326.566 474.356 329.142 474.609 331.718C474.993 335.695 475.308 339.671 475.554 343.647C476.098 352.483 476.265 361.327 476.056 370.177Z" fill="black"/>
<path d="M517.109 347.02C517.151 350.098 516.276 353.241 515.464 356.26C515.406 356.474 515.352 356.682 515.299 356.896C513.368 356.294 511.703 355.045 510.585 353.358C510.007 352.444 509.58 351.442 509.32 350.392C506.903 352.038 504.465 353.668 502.006 355.282C493.961 360.573 485.457 365.827 476.056 370.177C472.852 371.663 469.548 373.047 466.126 374.287C465.414 371.793 464.738 369.283 464.097 366.757C463.397 364.156 462.848 361.517 462.453 358.852C461.671 352.801 462.277 346.65 464.225 340.868L464.466 340.173C465.373 337.602 466.545 335.132 467.962 332.803C469.292 330.665 471.924 331.023 474.609 331.734C475.826 332.05 477.059 332.429 478.18 332.664C485.158 334.129 492.402 332.616 499.534 333.017C502.933 333.187 506.264 334.035 509.33 335.513C512.763 337.239 515.528 339.879 516.612 343.53C516.766 344.055 516.884 344.591 516.964 345.133C517.054 345.758 517.103 346.388 517.109 347.02Z" fill="#BE6F72"/>
<path d="M388.675 100.878C377.651 90.1887 365.121 81.1298 352.304 72.6587C348.968 70.5646 345.76 68.275 342.694 65.8017C339.491 63.1294 336.699 59.9922 333.299 57.5872C329.898 55.1821 325.691 53.5307 321.607 54.3217C317.523 55.1127 313.893 59.0249 314.491 63.1188C315.025 66.721 318.26 69.1901 321.25 71.2585C326.908 75.176 332.594 79.1042 338.749 82.1773C340.888 83.1477 342.961 84.2545 344.958 85.4909C348.791 88.0777 351.583 91.9043 354.482 95.5012C365.423 109.107 378.825 120.529 393.987 129.172C394.168 129.279 400.484 115.634 400.217 113.865C399.63 109.798 391.579 103.7 388.675 100.878Z" fill="#BE6F72"/>
<path d="M482.964 273.591C474.454 274.126 466.291 277.001 457.969 278.834C449.646 280.667 440.603 281.378 432.878 277.765L437.576 309.88C437.837 311.666 438.109 313.493 437.72 315.252C437.362 316.93 436.433 318.512 436.513 320.227C436.636 322.942 439.183 324.85 441.58 326.106C448.543 329.787 456.345 331.587 464.215 331.328C463.633 333.68 462.907 336.004 462.32 338.356C466.243 342.573 472.66 342.856 478.26 344.192C482.531 345.202 486.535 346.955 490.72 348.19C495.782 349.685 501.037 350.419 506.314 350.365C509.875 350.328 513.649 349.831 516.415 347.607C519.815 344.866 520.872 340.205 521.609 335.898C522.02 333.493 522.399 331.055 522.143 328.629C521.865 325.839 520.787 323.199 519.719 320.612L512.405 302.842C511.076 299.635 509.736 296.38 508.135 293.286C502.903 283.275 494.222 272.891 482.964 273.591Z" fill="#3F3D56"/>
<path d="M489.476 162.628C490.109 160.966 491.275 159.561 492.793 158.635C494.31 157.709 496.092 157.314 497.858 157.514C499.993 157.813 501.899 158.983 503.73 160.127L513.927 166.498C515.617 167.504 517.238 168.622 518.78 169.843C525.81 175.68 528.522 185.273 529.296 194.385C530.07 203.498 529.296 212.765 531.106 221.728C526.803 225.298 522.031 228.318 517.728 231.883C515.475 233.748 513.195 235.624 511.487 238.023C510.131 239.91 509.165 242.069 507.75 243.902C505.434 246.8 502.073 248.669 498.392 249.108C500.725 250.465 502.033 253.1 502.663 255.724C503.293 258.349 503.463 261.069 504.163 263.693C505.124 267.258 507.115 270.513 507.772 274.147C508.231 276.654 508.028 279.224 508.193 281.768C509.026 294.932 519.345 306.439 518.678 319.608C513.807 317.835 509.199 315.41 504.98 312.398C503.079 311.035 501.243 309.56 499.443 308.09L485.846 297.054C479.232 291.709 472.553 286.247 467.295 279.534C463.996 275.323 461.305 270.662 457.995 266.462C454.685 262.261 450.612 258.445 445.557 256.681C444.815 257.798 443.496 258.573 442.754 259.69C442.623 259.866 442.519 260.061 442.444 260.267C442.354 260.766 442.416 261.279 442.62 261.742C443.217 263.904 443.575 266.125 443.688 268.364L444.024 272.383C444.15 273.449 444.15 274.525 444.024 275.59C443.517 279.027 440.336 281.694 436.903 282.228C436.407 282.335 435.891 282.319 435.403 282.18C434.447 281.859 433.919 280.849 433.63 279.887C432.28 275.323 434.351 270.507 434.517 265.756C434.54 264.551 434.499 263.345 434.394 262.143L434.074 257.403C430.972 256.756 429.189 253.421 428.367 250.359C426.146 242.091 423.909 233.534 425.196 225.068C425.537 222.802 426.135 220.504 425.729 218.238C425.196 215.208 423.017 212.749 421.87 209.895C418.133 200.59 426.071 190.489 425.334 180.5C425.025 176.305 422.366 172.66 420.765 168.769C419.936 166.501 418.862 164.331 417.562 162.297C415.928 159.961 413.723 158.091 411.582 156.21C404.971 150.402 398.7 144.217 392.802 137.685C389.772 137.371 386.93 136.068 384.714 133.976C383.304 132.64 382.146 130.877 382.109 128.937C382.071 126.996 383.502 124.96 385.44 124.859C386.572 124.8 387.629 125.361 388.734 125.607C392.193 126.366 395.674 123.816 397.217 120.615C398.759 117.414 398.759 113.731 398.733 110.183C400.423 109.882 402.163 110.023 403.783 110.591C405.404 111.159 406.85 112.136 407.984 113.427C410.371 116.024 411.924 119.263 413.803 122.245C414.568 123.57 415.55 124.757 416.707 125.757C419.275 127.798 422.975 128.183 425.217 130.567C426.354 131.785 426.984 133.399 428.025 134.703C430.951 138.375 436.305 138.824 440.304 141.24C444.302 143.655 447.083 148.07 451.514 149.502C453.116 150.037 454.862 150.106 456.447 150.699C460.109 152.062 462.346 155.958 462.853 159.833C463.361 163.708 462.496 167.625 461.62 171.441L459.565 180.372C459.111 182.35 458.764 184.728 460.222 186.139C460.91 186.709 461.719 187.117 462.586 187.331C466.323 188.549 470.487 189.746 474 188.02C475.66 187.197 476.963 185.808 478.154 184.386C483.364 178.24 486.829 170.191 489.476 162.628Z" fill="#2A9D8F"/>
<path d="M531.613 344.369C530.877 349.259 528.186 354.069 523.782 356.308C521.141 357.612 518.094 357.823 515.299 356.896C513.368 356.294 511.703 355.045 510.585 353.358C510.007 352.444 509.58 351.442 509.32 350.392C509.32 350.339 509.293 350.28 509.282 350.226C508.881 348.335 508.714 346.402 508.786 344.47C508.785 341.471 508.963 338.475 509.32 335.497C509.618 332.99 510.11 330.509 510.793 328.079C511.786 324.61 513.217 321.27 514.53 317.924C515.213 316.16 515.87 314.391 516.409 312.58C516.735 311.511 517.013 310.41 517.237 309.298L517.317 308.897C517.36 308.673 517.397 308.448 517.434 308.224C517.968 305.177 518.123 302.024 519.495 299.272C522.698 292.81 528.933 294.462 529.884 300.421C529.956 300.882 529.997 301.348 530.006 301.816C530.151 309.357 527.161 316.727 528.528 324.295C528.913 326.14 529.398 327.964 529.98 329.757C530.46 331.408 530.893 333.081 531.224 334.775C531.894 337.928 532.026 341.172 531.613 344.369Z" fill="#BE6F72"/>
<path d="M534.55 260.513C534.694 263.602 534.55 266.729 535.169 269.759C536.616 276.921 542.109 283.259 541.5 290.539C541.351 292.313 540.694 294.221 539.146 295.098C537.598 295.974 535.035 295.905 534.528 297.668C534.384 298.16 534.459 298.694 534.299 299.181C533.962 300.218 532.697 300.661 531.629 300.634C530.562 300.608 529.494 300.255 528.389 300.346C524.518 300.672 523.098 305.856 519.65 307.636C517.328 308.833 514.311 308.17 512.395 306.401C510.478 304.632 509.64 301.874 509.79 299.261C509.902 297.289 510.526 295.386 510.857 293.441C511.46 289.972 511.146 286.418 510.831 282.912C510.366 277.776 509.886 272.576 508.199 267.707C507.403 265.409 506.346 263.212 505.658 260.882C504.675 257.584 504.451 254.116 504.35 250.679C504.141 243.448 504.638 235.715 508.951 229.9C512.192 225.539 516.836 221.995 520.504 217.96C522.799 215.432 523.461 214.641 525.997 216.784C528.085 218.543 530.268 220.969 530.503 223.353C531.144 229.462 530.503 235.469 531.645 241.69C532.788 247.911 534.251 254.126 534.55 260.513Z" fill="#2A9D8F"/>
<path d="M479.179 142.8C494.215 142.8 506.405 130.597 506.405 115.543C506.405 100.489 494.215 88.2861 479.179 88.2861C464.142 88.2861 451.952 100.489 451.952 115.543C451.952 130.597 464.142 142.8 479.179 142.8Z" fill="#BE6F72"/>
<path d="M504.109 167.684C504.707 166.845 505.417 165.942 506.432 165.766C507.197 165.708 507.964 165.869 508.642 166.231L515.811 169.229C517.749 166.026 518.891 162.404 519.143 158.668C519.292 156.375 519.111 154.05 519.548 151.795C520.2 148.449 522.18 145.451 522.639 142.073C523.002 139.348 522.346 136.606 521.951 133.886C520.733 125.484 522.041 116.911 521.342 108.451C520.643 99.9906 517.253 90.9263 509.715 87.0408C507.579 85.9719 505.278 85.3306 503.058 84.4861C498.109 82.5995 493.673 79.5799 488.783 77.5383C483.892 75.4967 478.148 74.5614 473.408 76.9076C468.667 79.2539 465.907 85.8543 468.987 90.162C470.002 91.5783 471.486 92.5831 472.906 93.6039C475.794 95.6722 478.741 98.2269 479.408 101.722C480.604 108.013 474.07 112.946 472.228 119.097C471.548 121.5 471.487 124.035 472.052 126.467C472.847 130.112 474.79 133.554 474.721 137.285C474.668 141.373 472.222 145.077 471.763 149.144C471.598 150.635 471.699 152.148 471.512 153.634C471.183 155.593 470.604 157.503 469.788 159.315C465.517 170.004 461.188 180.805 454.84 190.414C461.636 190.53 468.354 188.958 474.395 185.84C473.527 189.959 471.864 193.87 469.5 197.352C474.931 196.722 480.156 194.897 484.8 192.007C483.673 196.047 482.041 199.927 479.942 203.557C480.123 203.247 483.481 202.488 484.101 202.135C485.374 201.41 486.397 200.317 487.037 198.998C488.852 195.748 489.984 191.831 491.665 188.453C495.261 181.213 499.422 174.268 504.109 167.684V167.684Z" fill="#3F3D56"/>
<path d="M297.627 4.11528C296.334 4.2457 295.033 4.27607 293.735 4.20614C293.514 4.18194 293.292 4.24568 293.117 4.38362C292.942 4.52157 292.829 4.72269 292.801 4.94368L290.318 23.5854C290.127 24.9386 289.574 26.2148 288.717 27.2784C288.01 28.1249 287.485 29.1077 287.174 30.166C286.862 31.2242 286.772 32.3352 286.907 33.43V65.0962C286.907 65.0962 286.747 69.3184 289.987 69.3184C293.866 69.8063 297.79 69.8063 301.668 69.3184C301.668 69.3184 304.263 68.8267 304.263 64.9306V33.7506C304.46 32.6628 304.42 31.5449 304.143 30.4744C303.867 29.4039 303.361 28.4064 302.661 27.551C301.833 26.4835 301.297 25.2178 301.107 23.8793L298.529 4.84748C298.5 4.63351 298.39 4.43873 298.223 4.30272C298.055 4.16672 297.842 4.0997 297.627 4.11528Z" fill="#3F3D56"/>
<path d="M297.643 33.9965H293.708C290.45 33.9965 287.809 36.6405 287.809 39.9022V54.7225C287.809 57.9841 290.45 60.6282 293.708 60.6282H297.643C300.901 60.6282 303.542 57.9841 303.542 54.7225V39.9022C303.542 36.6405 300.901 33.9965 297.643 33.9965Z" fill="#2A9D8F"/>
<path d="M334.462 31.3723C333.169 31.5027 331.868 31.5331 330.571 31.4632C330.349 31.439 330.128 31.5027 329.953 31.6407C329.778 31.7786 329.665 31.9797 329.636 32.2007L327.154 50.8424C326.963 52.1956 326.41 53.4718 325.552 54.5355C324.846 55.3819 324.321 56.3648 324.009 57.423C323.698 58.4812 323.607 59.5922 323.743 60.687V92.3533C323.743 92.3533 323.583 96.5754 326.823 96.5754C330.701 97.0633 334.625 97.0633 338.504 96.5754C338.504 96.5754 341.098 96.0837 341.098 92.1876V61.0077C341.296 59.9198 341.255 58.8019 340.979 57.7314C340.702 56.6609 340.197 55.6634 339.497 54.808C338.668 53.7405 338.133 52.4748 337.943 51.1364L335.365 32.1045C335.335 31.8905 335.226 31.6958 335.058 31.5598C334.891 31.4238 334.678 31.3567 334.462 31.3723Z" fill="#3F3D56"/>
<path d="M334.478 61.2535H330.544C327.286 61.2535 324.645 63.8976 324.645 67.1592V81.9796C324.645 85.2412 327.286 87.8852 330.544 87.8852H334.478C337.736 87.8852 340.378 85.2412 340.378 81.9796V67.1592C340.378 63.8976 337.736 61.2535 334.478 61.2535Z" fill="#2A9D8F"/>
<g opacity="0.2">
<path opacity="0.2" d="M293.057 350.723C293.04 351.3 292.974 351.874 292.86 352.439C289.144 351.847 285.407 351.313 281.649 350.836C281.649 350.686 281.649 350.531 281.649 350.376C281.683 348.773 282.144 347.209 282.983 345.844C284.083 344.101 285.754 343.011 287.596 343.07C289.438 343.129 291.034 344.321 292.021 346.122C292.768 347.536 293.126 349.125 293.057 350.723V350.723Z" fill="#3F3D56"/>
<path opacity="0.2" d="M293.357 341.597C293.487 337.464 291.037 334.032 287.883 333.932C284.73 333.833 282.068 337.102 281.938 341.236C281.807 345.369 284.258 348.8 287.411 348.9C290.564 349 293.226 345.73 293.357 341.597Z" fill="#3F3D56"/>
<path opacity="0.2" d="M293.648 332.447C293.778 328.314 291.328 324.882 288.175 324.782C285.022 324.682 282.36 327.952 282.229 332.086C282.099 336.219 284.549 339.65 287.702 339.75C290.855 339.85 293.517 336.58 293.648 332.447Z" fill="#3F3D56"/>
<path opacity="0.2" d="M293.934 323.297C294.064 319.163 291.614 315.732 288.461 315.632C285.307 315.532 282.646 318.802 282.515 322.936C282.385 327.069 284.835 330.5 287.988 330.6C291.141 330.7 293.803 327.43 293.934 323.297Z" fill="#3F3D56"/>
<path opacity="0.2" d="M294.225 314.147C294.355 310.013 291.905 306.582 288.752 306.482C285.599 306.382 282.937 309.652 282.806 313.785C282.676 317.919 285.126 321.35 288.279 321.45C291.433 321.55 294.095 318.28 294.225 314.147Z" fill="#3F3D56"/>
<path opacity="0.2" d="M269.087 250.653C268.335 249.633 267.657 248.562 267.059 247.446L282.145 245.452L265.905 245.062C264.456 241.621 263.723 237.92 263.752 234.185C263.78 230.45 264.569 226.761 266.071 223.342L287.489 235.341L267.87 219.927C269.849 216.722 272.467 213.961 275.56 211.814C278.653 209.668 282.155 208.183 285.847 207.453C289.54 206.722 293.342 206.762 297.018 207.569C300.695 208.376 304.165 209.933 307.213 212.143C310.261 214.353 312.821 217.169 314.733 220.414C316.646 223.659 317.869 227.264 318.327 231.004C318.785 234.744 318.468 238.538 317.396 242.149C316.323 245.761 314.518 249.112 312.094 251.994C313.263 253.579 314.257 255.287 315.057 257.087L295.256 266.601L316.253 260.278C317.575 264.646 317.788 269.275 316.873 273.746C315.957 278.217 313.942 282.389 311.01 285.884C314.059 290.024 315.882 294.94 316.271 300.069C316.66 305.198 315.599 310.333 313.21 314.887C310.821 319.441 307.201 323.23 302.762 325.821C298.323 328.411 293.246 329.699 288.111 329.537C282.975 329.375 277.989 327.769 273.722 324.904C269.456 322.038 266.081 318.029 263.983 313.333C261.885 308.637 261.15 303.446 261.861 298.352C262.572 293.257 264.701 288.466 268.003 284.526C264.362 279.578 262.487 273.548 262.681 267.404C262.874 261.261 265.125 255.361 269.071 250.653H269.087Z" fill="#2A9D8F"/>
<path opacity="0.1" d="M317.417 269.134C317.23 275.281 314.972 281.184 311.01 285.884C314.059 290.024 315.882 294.94 316.271 300.069C316.66 305.198 315.599 310.333 313.21 314.887C310.821 319.441 307.201 323.23 302.762 325.821C298.323 328.411 293.246 329.699 288.111 329.537C282.975 329.375 277.989 327.769 273.722 324.904C269.456 322.038 266.081 318.029 263.983 313.333C261.885 308.637 261.15 303.446 261.861 298.352C262.572 293.257 264.701 288.466 268.003 284.526C264.496 279.753 317.513 266.061 317.417 269.134Z" fill="black"/>
</g>
</g>
<defs>
<clipPath id="clip0">
<rect width="606" height="381" fill="white"/>
</clipPath>
</defs>
</svg>
